<?xml version="1.0" encoding="UTF-8"?>
<!DOCTYPE svg PUBLIC "-//W3C//DTD SVG 1.1//EN" "http://www.w3.org/Graphics/SVG/1.1/DTD/svg11.dtd">
<!-- Creator: CorelDRAW 2020 (64-Bit) -->
<svg xmlns="http://www.w3.org/2000/svg" xml:space="preserve" width="35px" height="35px" version="1.1" style="shape-rendering:geometricPrecision; text-rendering:geometricPrecision; image-rendering:optimizeQuality; fill-rule:evenodd; clip-rule:evenodd"
viewBox="0 0 35 35"
 xmlns:xlink="http://www.w3.org/1999/xlink"
 xmlns:xodm="http://www.corel.com/coreldraw/odm/2003">
 <defs>
  <style type="text/css">
   <![CDATA[
    .str1 {stroke:#EF7F1A;stroke-width:4;stroke-linecap:round;stroke-miterlimit:22.9256}
    .str0 {stroke:#2B2A29;stroke-width:1.5;stroke-linecap:round;stroke-miterlimit:22.9256}
    .fil0 {fill:none}
   ]]>
  </style>
 </defs>
 <g id="Layer_x0020_1">
  <metadata id="CorelCorpID_0Corel-Layer"/>
  <path class="fil0 str0" d="M6.5 2.5c3,0 12,-1 15,1 3,2 9,3 9,14 0,11 -5.44,15.72 -13,15 -7.56,-0.72 -17,-4 -14,-17 2.24,-9.69 6,-8 11,-9"/>
  <path class="fil0 str1" d="M12.9 12.19c-0.36,0.52 -0.08,1.38 -0.08,2.07 0,1.39 0.76,2.69 0.76,4.98 0,1.24 0.92,4.3 -0.68,7.26"/>
  <path class="fil0 str1" d="M22.41 12.19c0.23,1.82 -1.88,4.63 -1.77,8.16 0.08,2.5 -0.78,1.7 -0.11,5.17l-0.12 0.53"/>
 </g>
</svg>
