<?xml version="1.0" encoding="UTF-8"?>
<!DOCTYPE svg PUBLIC "-//W3C//DTD SVG 1.1//EN" "http://www.w3.org/Graphics/SVG/1.1/DTD/svg11.dtd">
<!-- Creator: CorelDRAW 2020 (64-Bit) -->
<svg xmlns="http://www.w3.org/2000/svg" xml:space="preserve" width="35px" height="35px" version="1.1" style="shape-rendering:geometricPrecision; text-rendering:geometricPrecision; image-rendering:optimizeQuality; fill-rule:evenodd; clip-rule:evenodd"
viewBox="0 0 35 35"
 xmlns:xlink="http://www.w3.org/1999/xlink"
 xmlns:xodm="http://www.corel.com/coreldraw/odm/2003">
 <defs>
  <style type="text/css">
   <![CDATA[
    .str1 {stroke:#EF7F1A;stroke-width:3.5;stroke-linecap:round;stroke-miterlimit:22.9256}
    .str0 {stroke:#2B2A29;stroke-width:1.5;stroke-linecap:round;stroke-miterlimit:22.9256}
    .fil0 {fill:none}
   ]]>
  </style>
 </defs>
 <g id="Layer_x0020_1">
  <metadata id="CorelCorpID_0Corel-Layer"/>
  <path class="fil0 str0" d="M6.5 2.5c3,0 12,-1 15,1 3,2 9,3 9,14 0,11 -5.44,15.72 -13,15 -7.56,-0.72 -17,-4 -14,-17 2.24,-9.69 6,-8 11,-9"/>
  <path class="fil0 str1" d="M10.93 11.79c-1.94,2.77 -0.93,4.22 -0.93,6.21 0,1.29 -1,4.35 0,6 3.35,0.39 16,-4 15.5,-6.5 0.5,-2.5 -13.27,-5.85 -14.57,-5.71z"/>
 </g>
</svg>
