<?xml version="1.0" encoding="UTF-8"?>
<!DOCTYPE svg PUBLIC "-//W3C//DTD SVG 1.1//EN" "http://www.w3.org/Graphics/SVG/1.1/DTD/svg11.dtd">
<!-- Creator: CorelDRAW 2020 (64-Bit) -->
<svg xmlns="http://www.w3.org/2000/svg" xml:space="preserve" width="35px" height="35px" version="1.1" style="shape-rendering:geometricPrecision; text-rendering:geometricPrecision; image-rendering:optimizeQuality; fill-rule:evenodd; clip-rule:evenodd"
viewBox="0 0 35 35"
 xmlns:xlink="http://www.w3.org/1999/xlink"
 xmlns:xodm="http://www.corel.com/coreldraw/odm/2003">
 <defs>
  <style type="text/css">
   <![CDATA[
    .str1 {stroke:#EF7F1A;stroke-width:3;stroke-linecap:round;stroke-miterlimit:22.9256}
    .str0 {stroke:#2B2A29;stroke-width:1.5;stroke-linecap:round;stroke-miterlimit:22.9256}
    .fil0 {fill:none}
   ]]>
  </style>
 </defs>
 <g id="Layer_x0020_1">
  <metadata id="CorelCorpID_0Corel-Layer"/>
  <path class="fil0 str0" d="M6.5 2.5c3,0 12,-1 15,1 3,2 9,3 9,14 0,11 -5.44,15.72 -13,15 -7.56,-0.72 -17,-4 -14,-17 2.24,-9.69 6,-8 11,-9"/>
  <path class="fil0 str1" d="M14.28 24.14c0.8,-2.47 0.38,-3.76 0.38,-5.54 0,-1.16 0.42,-3.89 0,-5.37 -1.39,-0.34 -6.67,3.58 -6.46,5.81 -0.21,2.24 5.53,5.24 6.08,5.1z"/>
  <path class="fil0 str1" d="M25.25 23.61c0.81,-2.47 0.39,-3.76 0.39,-5.54 0,-1.16 0.42,-3.89 0,-5.37 -1.4,-0.34 -6.67,3.58 -6.46,5.81 -0.21,2.24 5.53,5.24 6.07,5.1z"/>
 </g>
</svg>
