<?xml version="1.0" encoding="UTF-8"?>
<!DOCTYPE svg PUBLIC "-//W3C//DTD SVG 1.1//EN" "http://www.w3.org/Graphics/SVG/1.1/DTD/svg11.dtd">
<!-- Creator: CorelDRAW 2020 (64-Bit) -->
<svg xmlns="http://www.w3.org/2000/svg" xml:space="preserve" width="35px" height="35px" version="1.1" style="shape-rendering:geometricPrecision; text-rendering:geometricPrecision; image-rendering:optimizeQuality; fill-rule:evenodd; clip-rule:evenodd"
viewBox="0 0 35 35"
 xmlns:xlink="http://www.w3.org/1999/xlink"
 xmlns:xodm="http://www.corel.com/coreldraw/odm/2003">
 <defs>
  <style type="text/css">
   <![CDATA[
    .str2 {stroke:#EF7F1A;stroke-width:4;stroke-miterlimit:22.9256}
    .str0 {stroke:#2B2A29;stroke-width:1.5;stroke-miterlimit:22.9256}
    .str1 {stroke:#2B2A29;stroke-width:1.5;stroke-linecap:round;stroke-miterlimit:22.9256}
    .fil0 {fill:none}
    .fil1 {fill:#EF7F1A}
   ]]>
  </style>
 </defs>
 <g id="Layer_x0020_1">
  <metadata id="CorelCorpID_0Corel-Layer"/>
  <path class="fil0 str0" d="M6.5 2.5c3,0 12,-1 15,1 3,2 9,3 9,14 0,11 -5.44,15.72 -13,15 -7.56,-0.72 -17,-4 -14,-17 2.24,-9.69 6,-8 11,-9"/>
  <path class="fil0 str1" d="M6.5 2.5c3,0 12,-1 15,1 3,2 9,3 9,14 0,11 -5.44,15.72 -13,15 -7.56,-0.72 -17,-4 -14,-17 2.24,-9.69 6,-8 11,-9"/>
  <path class="fil1 str2" d="M11.81 14.32c1.28,-0.91 3.21,-0.77 4.56,-0.74 0.7,0.02 1.65,-0.22 2.44,0.04 1.87,0.62 3.69,-0.12 4.69,0.88 0.58,1.16 0.71,8.85 0,10 -0.05,0.08 -10,1 -12,0 -1.2,-0.6 -1.07,-4.99 -1.06,-5.55 0.03,-3.06 0.08,-3.71 1.37,-4.63z"/>
 </g>
</svg>
