<?xml version="1.0" encoding="UTF-8"?>
<!DOCTYPE svg PUBLIC "-//W3C//DTD SVG 1.1//EN" "http://www.w3.org/Graphics/SVG/1.1/DTD/svg11.dtd">
<!-- Creator: CorelDRAW 2020 (64-Bit) -->
<svg xmlns="http://www.w3.org/2000/svg" xml:space="preserve" width="11811px" height="5906px" version="1.1" style="shape-rendering:geometricPrecision; text-rendering:geometricPrecision; image-rendering:optimizeQuality; fill-rule:evenodd; clip-rule:evenodd"
viewBox="0 0 11811 5905.5"
 xmlns:xlink="http://www.w3.org/1999/xlink"
 xmlns:xodm="http://www.corel.com/coreldraw/odm/2003">
 <defs>
  <style type="text/css">
   <![CDATA[
    .str0 {stroke:#FF6600;stroke-width:83.33;stroke-miterlimit:22.9256}
    .fil0 {fill:#2B2A29;fill-rule:nonzero}
   ]]>
  </style>
    <clipPath id="id0">
     <path d="M-253.27 -628.12l11804.15 0 0 3712.41 -11804.15 0 0 -3712.41z"/>
    </clipPath>
 </defs>
 <g id="Layer_x0020_1">
  <metadata id="CorelCorpID_0Corel-Layer"/>
  <g id="_2220249569728">
   <g style="clip-path:url(#id0)">
    <image x="-253.27" y="-628.12" width="11804.15" height="3712.41" xlink:href="title_Images\title_ImgID1.png"/>
   </g>
  </g>
  <path class="fil0 str0" d="M899.65 251.85c194.45,0 388.48,0 582.08,0 193.59,0 377.38,0 551.37,0l220.03 166.3c-23.88,112.58 -29.42,207.25 -16.63,284 12.79,76.76 -11.51,156.08 -72.92,237.95 -85.28,-18.76 -136.88,-62.26 -154.79,-130.49 -17.91,-68.22 -37.95,-122.81 -60.13,-163.74 -68.22,-92.11 -156.92,-145.42 -266.09,-159.91 -109.16,-14.5 -196.15,-21.75 -260.97,-21.75 -90.4,42.64 -156.93,102.77 -199.57,180.38 -42.64,77.61 -63.96,149.67 -63.96,216.19 0,109.17 -2.13,223.88 -6.4,344.13 -4.26,120.25 0.43,236.24 14.07,347.97 13.65,111.72 43.5,214.49 89.55,308.3 46.06,93.82 118.55,168.87 217.48,225.16 -117.69,83.58 -253.72,122.38 -408.09,116.41 -154.37,-5.97 -297.22,-32.83 -428.56,-80.59 131.34,-194.45 218.33,-420.46 260.98,-678.02 42.64,-257.56 43.49,-496.36 2.55,-716.4 -22.17,-110.87 -77.61,-182.94 -166.3,-216.2 -88.7,-33.26 -121.11,-93.39 -97.23,-180.38 63.11,-39.23 117.27,-52.45 162.47,-39.66 45.2,12.8 78.89,-0.42 101.06,-39.65zm2840.01 1939.39l-176.54 -79.32c-39.23,-39.23 -50.75,-89.55 -34.54,-150.95 16.2,-61.41 15.77,-124.52 -1.28,-189.34 -64.82,-107.46 -154.37,-150.1 -268.65,-127.93 -114.29,22.18 -224.3,23.88 -330.06,5.12l-166.3 207.25c35.82,42.64 35.82,127.92 0,255.85 -64.82,39.23 -130.92,51.17 -198.29,35.82 -67.38,-15.35 -143.71,-12.79 -228.99,7.68 0,-138.16 34.96,-283.15 104.9,-434.96 69.93,-151.81 134.75,-304.89 194.45,-459.26 59.7,-154.37 95.52,-307.45 107.46,-459.26 11.94,-151.81 -40.09,-296.8 -156.07,-434.96 107.45,-64.81 226.85,-97.22 358.19,-97.22 131.34,0 242.21,32.41 332.62,97.22 163.74,235.39 297.64,507.88 401.69,817.46 104.05,309.59 250.74,592.31 440.07,848.17 -23.88,104.04 -71.64,156.5 -143.28,157.35 -71.64,0.85 -150.1,1.28 -235.38,1.28zm-598.71 -846.89l43.5 0c44.35,0 84,-22.6 118.97,-67.8 34.97,-45.2 52.45,-79.74 52.45,-103.62 -64.81,-61.41 -86.56,-118.55 -65.24,-171.42 21.32,-52.88 0.43,-79.32 -62.69,-79.32l-86.99 0c-46.05,0 -85.71,23.03 -118.97,69.08 -33.26,46.06 -49.89,80.17 -49.89,102.34l0 79.32c0,46.05 22.6,86.14 67.8,120.25 45.2,34.12 78.89,51.17 101.06,51.17zm1230.67 869.91l-173.98 -79.31c175.69,-262.68 243.06,-563.31 202.13,-901.89 -40.94,-338.59 -93.82,-650.31 -158.64,-935.16 218.34,0 430.27,-14.07 635.81,-42.21 205.53,-28.15 427.7,2.98 666.5,93.38 86.99,85.29 147.97,204.26 182.94,356.92 34.97,152.66 17.48,294.66 -52.45,426 -44.35,98.93 -108.74,167.16 -193.17,204.69 -84.43,37.52 -175.26,65.67 -272.49,84.43 -97.23,18.76 -193.17,38.38 -287.84,58.85 -94.66,20.47 -175.26,63.11 -241.78,127.92l0 176.55c0,86.99 47.33,139.86 142,158.63 94.67,18.76 162.47,82.72 203.4,191.89 -88.69,40.94 -193.17,54.58 -313.42,40.94 -120.25,-13.65 -233.25,-0.86 -339.01,38.37zm475.89 -1000.39l43.5 0c66.52,0 120.68,0 162.47,0 41.79,0 75.48,0 101.06,0l263.53 -212.36c0,-112.58 -12.79,-202.98 -38.38,-271.21 -25.58,-68.23 -71.64,-124.52 -138.16,-168.87 -86.99,0 -164.17,-9.8 -231.55,-29.42 -67.37,-19.62 -134.32,-9.81 -200.85,29.42l-130.48 176.54c0,88.7 6.82,184.65 20.47,287.84 13.64,103.2 63.11,165.88 148.39,188.06zm2159.43 -619.18c-110.87,-23.87 -217.48,-34.54 -319.82,-31.98 -102.34,2.56 -196.16,25.16 -281.44,67.8 -42.65,63.12 -56.72,116.85 -42.22,161.19 14.5,44.35 0.43,76.76 -42.22,97.23 42.65,63.11 78.04,109.59 106.19,139.44 28.14,29.85 64.39,55.01 108.73,75.48 59.7,0 119.83,-6.82 180.38,-20.47 60.56,-13.65 112.15,-20.47 154.8,-20.47 10.23,-6.82 20.46,-12.79 30.7,-17.91l478.45 81.88c1.71,51.17 5.12,103.19 10.23,156.07 10.24,114.28 54.59,225.15 133.05,332.61l0 255.86c-66.52,97.22 -151.38,165.45 -254.58,204.68 -103.19,39.23 -215.34,65.24 -336.45,78.04 -121.1,12.79 -246.05,20.04 -374.83,21.75 -128.78,1.7 -251.16,12.79 -367.15,33.26l-43.5 0c-42.64,-39.23 -86.13,-54.59 -130.48,-46.06 -44.35,8.53 -98.94,-17.05 -163.75,-76.75 129.63,-235.39 188.48,-515.13 176.54,-839.21 -11.94,-324.09 -70.79,-614.91 -176.54,-872.47 208.1,-64.82 421.74,-95.09 640.92,-90.83 219.18,4.26 517.25,11.51 894.22,21.75 -1.71,44.35 -23.03,118.54 -63.97,222.59l-135.6 97.23 -181.66 -30.71zm-258.41 1363.72l38.37 0c88.7,-68.23 176.97,-92.54 264.82,-72.92 87.84,19.61 142.85,-13.22 165.02,-98.51 0,-61.4 -13.64,-114.28 -40.94,-158.63 -27.29,-44.34 -40.93,-75.9 -40.93,-94.66 -109.17,-64.82 -215.35,-96.38 -318.54,-94.67 -103.2,1.71 -196.59,2.56 -280.17,2.56 -64.81,25.58 -111.72,70.79 -140.72,135.6 -28.99,64.82 -53.73,105.76 -74.2,122.81l84.44 171.43c64.81,44.35 126.65,59.27 185.49,44.77 58.85,-14.5 111.3,-0.42 157.36,42.22zm1814.02 -350.53c-54.59,105.76 -101.49,204.69 -140.73,296.8 -32.41,104.05 -73.34,174.83 -122.81,212.36l-240.5 43.49 -122.81 -48.61c-49.47,-10.23 -67.38,-29.42 -53.73,-57.57 13.64,-28.14 34.96,-60.12 63.96,-95.94 114.28,-35.82 191.47,-107.04 231.55,-213.64 40.09,-106.61 105.33,-292.1 195.73,-556.49 -151.81,-167.16 -279.31,-304.89 -382.5,-413.21 -103.2,-108.31 -219.61,-228.14 -349.25,-359.48l84.44 -168.86 432.39 0c109.17,18.76 145.41,66.95 108.74,144.56 -36.67,77.61 -43.92,160.76 -21.75,249.46l173.98 161.19c18.77,0 50.75,-8.1 95.95,-24.31 45.2,-16.2 98.51,-35.39 159.91,-57.57 47.76,-39.23 61.41,-89.97 40.94,-152.23 -20.47,-62.26 -19.62,-125.8 2.56,-190.61l133.04 -130.49c64.82,0 144.99,-2.56 240.51,-7.68 95.52,-5.11 177.39,26.44 245.62,94.67l0 81.87c-46.06,64.82 -101.49,124.1 -166.31,177.83 -64.82,53.72 -127.07,110.01 -186.77,168.86 -59.7,58.85 -110.02,125.8 -150.96,200.85 -15.35,27.29 -28.14,56.29 -38.38,86.99l-232.82 557.76zm1046.45 570.56c-40.94,-15.35 -73.78,-37.52 -98.51,-66.52 -24.73,-29 -54.15,-98.08 -88.27,-207.24 83.58,0 182.09,8.53 295.52,25.58 113.42,17.06 220.46,17.06 321.1,0 100.63,-17.05 176.11,-37.09 226.43,-60.12 50.32,-23.03 95.94,-96.8 136.88,-221.32 -22.17,-76.75 -71.21,-153.51 -147.12,-230.27 -75.9,-76.76 -171.85,-125.37 -287.83,-145.84 -40.94,-44.34 -40.94,-125.37 0,-243.06 17.05,17.06 45.62,9.81 85.71,-21.75 40.08,-31.55 89.12,-37.95 147.11,-19.19 22.18,-18.76 41.79,-41.36 58.85,-67.8 17.06,-26.44 44.35,-60.98 81.88,-103.62 5.11,-66.52 -4.7,-132.19 -29.43,-197.01 -24.73,-64.82 -65.24,-112.58 -121.53,-143.28 -114.28,-1.71 -210.65,14.93 -289.12,49.89 -78.46,34.97 -175.69,67.8 -291.67,98.51 -40.94,-93.82 -51.18,-158.21 -30.71,-193.17 20.47,-34.97 30.71,-71.22 30.71,-108.74 158.63,-42.65 337.73,-66.1 537.3,-70.36 199.56,-4.27 347.96,84 445.18,264.81 0,175.69 -5.54,354.79 -16.63,537.3 -11.08,182.51 23.46,373.55 103.63,573.11 18.76,119.4 -8.11,220.47 -80.6,303.19 -72.49,82.73 -176.97,153.94 -313.42,213.64 -98.93,39.23 -200,50.75 -303.19,34.54 -103.2,-16.2 -216.2,-16.63 -339.01,-1.28l-33.26 0z"/>
 </g>
</svg>
